<svg width="74" height="29" viewBox="0 0 74 29" fill="none" xmlns="http://www.w3.org/2000/svg">
<path d="M3.18963 20.4545H4.55753V25.0185C4.55753 25.4403 4.46271 25.8068 4.27308 26.1179C4.08558 26.429 3.82457 26.6687 3.49006 26.837C3.15554 27.0053 2.76669 27.0895 2.32351 27.0895C1.92933 27.0895 1.57138 27.0202 1.24964 26.8817C0.930043 26.7411 0.676492 26.5281 0.488991 26.2425C0.301491 25.9549 0.208807 25.5937 0.210938 25.1591H1.58842C1.59268 25.3317 1.62784 25.4798 1.69389 25.6033C1.76207 25.7248 1.85476 25.8185 1.97195 25.8846C2.09126 25.9485 2.23189 25.9805 2.39382 25.9805C2.56428 25.9805 2.7081 25.9442 2.82528 25.8718C2.9446 25.7972 3.03516 25.6886 3.09695 25.5458C3.15874 25.4031 3.18963 25.2273 3.18963 25.0185V20.4545ZM5.7017 27V20.4545H7.08558V23.3406H7.17188L9.52734 20.4545H11.1861L8.7571 23.3853L11.2148 27H9.5593L7.76634 24.3089L7.08558 25.1399V27H5.7017ZM11.9068 27V20.4545H16.3173V21.5955H13.2907V23.1552H16.0904V24.2962H13.2907V25.859H16.3301V27H11.9068ZM17.1682 21.5955V20.4545H22.5439V21.5955H20.54V27H19.1721V21.5955H17.1682ZM25.5123 27V20.4545H28.0946C28.5911 20.4545 29.014 20.5494 29.3635 20.739C29.7129 20.9265 29.9792 21.1875 30.1625 21.522C30.3478 21.8544 30.4405 22.2379 30.4405 22.6726C30.4405 23.1072 30.3468 23.4908 30.1593 23.8232C29.9718 24.1555 29.7001 24.4144 29.3443 24.5998C28.9906 24.7852 28.5623 24.8778 28.0595 24.8778H26.4135V23.7688H27.8358C28.1021 23.7688 28.3216 23.723 28.4941 23.6314C28.6689 23.5376 28.7988 23.4087 28.8841 23.2447C28.9714 23.0785 29.0151 22.8878 29.0151 22.6726C29.0151 22.4553 28.9714 22.2656 28.8841 22.1037C28.7988 21.9396 28.6689 21.8129 28.4941 21.7234C28.3194 21.6317 28.0978 21.5859 27.8294 21.5859H26.8961V27H25.5123ZM31.3138 27V22.0909H32.6338V22.9474H32.6849C32.7744 22.6428 32.9246 22.4126 33.1356 22.2571C33.3465 22.0994 33.5894 22.0206 33.8643 22.0206C33.9324 22.0206 34.0059 22.0249 34.0848 22.0334C34.1636 22.0419 34.2329 22.0536 34.2925 22.0685V23.2766C34.2286 23.2575 34.1402 23.2404 34.0273 23.2255C33.9143 23.2106 33.811 23.2031 33.7172 23.2031C33.517 23.2031 33.338 23.2468 33.1803 23.3342C33.0248 23.4194 32.9012 23.5387 32.8096 23.6921C32.7201 23.8455 32.6753 24.0224 32.6753 24.2227V27H31.3138ZM34.9964 27V22.0909H36.358V27H34.9964ZM35.6804 21.4581C35.478 21.4581 35.3043 21.391 35.1594 21.2567C35.0167 21.1204 34.9453 20.9574 34.9453 20.7678C34.9453 20.5803 35.0167 20.4194 35.1594 20.2852C35.3043 20.1488 35.478 20.0806 35.6804 20.0806C35.8828 20.0806 36.0554 20.1488 36.1982 20.2852C36.343 20.4194 36.4155 20.5803 36.4155 20.7678C36.4155 20.9574 36.343 21.1204 36.1982 21.2567C36.0554 21.391 35.8828 21.4581 35.6804 21.4581ZM37.4486 27V22.0909H38.7462V22.957H38.8037C38.906 22.6694 39.0764 22.4425 39.3151 22.2763C39.5537 22.1101 39.8392 22.027 40.1716 22.027C40.5083 22.027 40.7948 22.1112 41.0313 22.2795C41.2678 22.4457 41.4255 22.6715 41.5044 22.957H41.5555C41.6556 22.6758 41.8367 22.451 42.0988 22.2827C42.363 22.1122 42.6752 22.027 43.0352 22.027C43.4933 22.027 43.8651 22.1729 44.1507 22.4648C44.4383 22.7546 44.5821 23.1658 44.5821 23.6985V27H43.2238V23.967C43.2238 23.6942 43.1514 23.4897 43.0065 23.3533C42.8616 23.217 42.6805 23.1488 42.4632 23.1488C42.216 23.1488 42.0232 23.2276 41.8847 23.3853C41.7462 23.5408 41.6769 23.7464 41.6769 24.0021V27H40.357V23.9382C40.357 23.6974 40.2877 23.5057 40.1492 23.3629C40.0129 23.2202 39.8328 23.1488 39.6091 23.1488C39.4578 23.1488 39.3215 23.1871 39.2 23.2638C39.0807 23.3384 38.9859 23.4439 38.9156 23.5803C38.8453 23.7145 38.8101 23.8722 38.8101 24.0533V27H37.4486ZM47.8948 27.0959C47.3898 27.0959 46.9552 26.9936 46.5908 26.7891C46.2286 26.5824 45.9495 26.2905 45.7535 25.9134C45.5574 25.5341 45.4594 25.0856 45.4594 24.5678C45.4594 24.0629 45.5574 23.6197 45.7535 23.2383C45.9495 22.8569 46.2254 22.5597 46.5812 22.3466C46.9392 22.1335 47.3589 22.027 47.8405 22.027C48.1643 22.027 48.4658 22.0792 48.7449 22.1836C49.0262 22.2859 49.2712 22.4403 49.48 22.647C49.691 22.8537 49.855 23.1136 49.9722 23.4268C50.0894 23.7379 50.148 24.1023 50.148 24.5199V24.8938H46.0028V24.0501H48.8664C48.8664 23.854 48.8238 23.6804 48.7385 23.5291C48.6533 23.3778 48.5351 23.2596 48.3838 23.1744C48.2346 23.087 48.061 23.0433 47.8628 23.0433C47.6562 23.0433 47.4729 23.0913 47.3131 23.1871C47.1555 23.2809 47.0319 23.4077 46.9424 23.5675C46.8529 23.7251 46.8071 23.9009 46.805 24.0948V24.897C46.805 25.1399 46.8497 25.3498 46.9392 25.5266C47.0308 25.7035 47.1597 25.8398 47.3259 25.9357C47.4921 26.0316 47.6892 26.0795 47.9172 26.0795C48.0684 26.0795 48.2069 26.0582 48.3327 26.0156C48.4584 25.973 48.566 25.9091 48.6555 25.8239C48.7449 25.7386 48.8131 25.6342 48.86 25.5107L50.1192 25.5938C50.0553 25.8963 49.9243 26.1605 49.7261 26.3864C49.5301 26.6101 49.2765 26.7848 48.9655 26.9105C48.6565 27.0341 48.2996 27.0959 47.8948 27.0959ZM58.9203 22.7461H57.5204C57.4949 22.565 57.4426 22.4041 57.3638 22.2635C57.285 22.1207 57.1838 21.9993 57.0602 21.8991C56.9366 21.799 56.7939 21.7223 56.6319 21.669C56.4721 21.6158 56.2985 21.5891 56.111 21.5891C55.7722 21.5891 55.4771 21.6733 55.2257 21.8416C54.9743 22.0078 54.7793 22.2507 54.6408 22.5703C54.5023 22.8878 54.4331 23.2734 54.4331 23.7273C54.4331 24.1939 54.5023 24.5859 54.6408 24.9034C54.7814 25.2209 54.9775 25.4606 55.2289 25.6225C55.4803 25.7844 55.7711 25.8654 56.1014 25.8654C56.2868 25.8654 56.4583 25.8409 56.6159 25.7919C56.7757 25.7429 56.9174 25.6715 57.041 25.5778C57.1646 25.4819 57.2669 25.3658 57.3478 25.2294C57.4309 25.093 57.4885 24.9375 57.5204 24.7628L58.9203 24.7692C58.8841 25.0696 58.7935 25.3594 58.6486 25.6385C58.5059 25.9155 58.313 26.1637 58.0701 26.3832C57.8294 26.6005 57.5417 26.7731 57.2072 26.9009C56.8748 27.0266 56.4988 27.0895 56.079 27.0895C55.4952 27.0895 54.9732 26.9574 54.513 26.6932C54.0549 26.429 53.6926 26.0465 53.4263 25.5458C53.1621 25.0451 53.03 24.4389 53.03 23.7273C53.03 23.0135 53.1642 22.4062 53.4327 21.9055C53.7012 21.4048 54.0655 21.0234 54.5257 20.7614C54.986 20.4972 55.5037 20.3651 56.079 20.3651C56.4583 20.3651 56.8098 20.4183 57.1337 20.5249C57.4597 20.6314 57.7484 20.7869 57.9998 20.9915C58.2512 21.1939 58.4558 21.4421 58.6135 21.7362C58.7733 22.0302 58.8755 22.3668 58.9203 22.7461ZM61.2869 27.0927C60.9737 27.0927 60.6946 27.0384 60.4496 26.9297C60.2045 26.8189 60.0107 26.6559 59.8679 26.4407C59.7273 26.2234 59.657 25.9528 59.657 25.6289C59.657 25.3562 59.707 25.1271 59.8072 24.9418C59.9073 24.7564 60.0437 24.6072 60.2163 24.4943C60.3888 24.3814 60.5849 24.2962 60.8043 24.2386C61.0259 24.1811 61.2582 24.1406 61.5011 24.1172C61.7866 24.0874 62.0167 24.0597 62.1914 24.0341C62.3661 24.0064 62.4929 23.9659 62.5717 23.9126C62.6506 23.8594 62.69 23.7805 62.69 23.6761V23.657C62.69 23.4545 62.6261 23.2979 62.4982 23.1871C62.3725 23.0763 62.1935 23.021 61.9613 23.021C61.7163 23.021 61.5213 23.0753 61.3764 23.1839C61.2315 23.2905 61.1357 23.4247 61.0888 23.5866L59.8295 23.4844C59.8935 23.1861 60.0192 22.9283 60.2067 22.7109C60.3942 22.4915 60.636 22.3232 60.9322 22.206C61.2305 22.0866 61.5756 22.027 61.9677 22.027C62.2404 22.027 62.5014 22.0589 62.7507 22.1229C63.0021 22.1868 63.2248 22.2859 63.4187 22.4201C63.6147 22.5543 63.7692 22.7269 63.8821 22.9379C63.995 23.1467 64.0515 23.397 64.0515 23.6889V27H62.7603V26.3192H62.7219C62.6431 26.4727 62.5376 26.608 62.4055 26.7251C62.2734 26.8402 62.1147 26.9308 61.9293 26.9968C61.744 27.0607 61.5298 27.0927 61.2869 27.0927ZM61.6768 26.1531C61.8771 26.1531 62.054 26.1136 62.2074 26.0348C62.3608 25.9538 62.4812 25.8452 62.5685 25.7088C62.6559 25.5724 62.6996 25.418 62.6996 25.2454V24.7244C62.657 24.7521 62.5984 24.7777 62.5238 24.8011C62.4513 24.8224 62.3693 24.8427 62.2777 24.8619C62.1861 24.8789 62.0945 24.8949 62.0028 24.9098C61.9112 24.9226 61.8281 24.9343 61.7536 24.945C61.5938 24.9684 61.4542 25.0057 61.3349 25.0568C61.2156 25.108 61.1229 25.1772 61.0568 25.2646C60.9908 25.3498 60.9577 25.4563 60.9577 25.5842C60.9577 25.7695 61.0249 25.9112 61.1591 26.0092C61.2955 26.1051 61.468 26.1531 61.6768 26.1531ZM65.1078 27V22.0909H66.4277V22.9474H66.4789C66.5684 22.6428 66.7186 22.4126 66.9295 22.2571C67.1404 22.0994 67.3833 22.0206 67.6582 22.0206C67.7264 22.0206 67.7999 22.0249 67.8787 22.0334C67.9576 22.0419 68.0268 22.0536 68.0865 22.0685V23.2766C68.0225 23.2575 67.9341 23.2404 67.8212 23.2255C67.7083 23.2106 67.6049 23.2031 67.5112 23.2031C67.3109 23.2031 67.1319 23.2468 66.9743 23.3342C66.8187 23.4194 66.6951 23.5387 66.6035 23.6921C66.514 23.8455 66.4693 24.0224 66.4693 24.2227V27H65.1078ZM70.7991 27.0959C70.2941 27.0959 69.8595 26.9936 69.4951 26.7891C69.1329 26.5824 68.8538 26.2905 68.6578 25.9134C68.4617 25.5341 68.3637 25.0856 68.3637 24.5678C68.3637 24.0629 68.4617 23.6197 68.6578 23.2383C68.8538 22.8569 69.1297 22.5597 69.4855 22.3466C69.8435 22.1335 70.2632 22.027 70.7448 22.027C71.0686 22.027 71.3701 22.0792 71.6492 22.1836C71.9305 22.2859 72.1755 22.4403 72.3843 22.647C72.5953 22.8537 72.7593 23.1136 72.8765 23.4268C72.9937 23.7379 73.0523 24.1023 73.0523 24.5199V24.8938H68.907V24.0501H71.7707C71.7707 23.854 71.7281 23.6804 71.6428 23.5291C71.5576 23.3778 71.4394 23.2596 71.2881 23.1744C71.1389 23.087 70.9653 23.0433 70.7671 23.0433C70.5605 23.0433 70.3772 23.0913 70.2174 23.1871C70.0597 23.2809 69.9362 23.4077 69.8467 23.5675C69.7572 23.7251 69.7114 23.9009 69.7093 24.0948V24.897C69.7093 25.1399 69.754 25.3498 69.8435 25.5266C69.9351 25.7035 70.064 25.8398 70.2302 25.9357C70.3964 26.0316 70.5935 26.0795 70.8215 26.0795C70.9727 26.0795 71.1112 26.0582 71.2369 26.0156C71.3627 25.973 71.4703 25.9091 71.5597 25.8239C71.6492 25.7386 71.7174 25.6342 71.7643 25.5107L73.0235 25.5938C72.9596 25.8963 72.8286 26.1605 72.6304 26.3864C72.4344 26.6101 72.1808 26.7848 71.8698 26.9105C71.5608 27.0341 71.2039 27.0959 70.7991 27.0959Z" fill="#19413A"/>
<g clip-path="url(#clip0_1148_855)">
<path d="M38.405 1.05C37.992 -0.35 36.008 -0.35 35.595 1.05L35.495 1.39C35.4333 1.59959 35.3255 1.79272 35.1794 1.95521C35.0333 2.11771 34.8528 2.24544 34.6509 2.32906C34.449 2.41268 34.231 2.45006 34.0128 2.43846C33.7947 2.42685 33.5818 2.36656 33.39 2.262L33.08 2.092C31.797 1.394 30.394 2.797 31.093 4.079L31.262 4.39C31.708 5.21 31.285 6.231 30.39 6.495L30.05 6.595C28.65 7.008 28.65 8.992 30.05 9.405L30.39 9.505C30.5996 9.56671 30.7927 9.67455 30.9552 9.82061C31.1177 9.96667 31.2454 10.1472 31.3291 10.3491C31.4127 10.551 31.4501 10.769 31.4385 10.9872C31.4269 11.2053 31.3666 11.4182 31.262 11.61L31.092 11.92C30.394 13.203 31.797 14.606 33.079 13.907L33.39 13.738C33.5818 13.6334 33.7947 13.5731 34.0128 13.5615C34.231 13.5499 34.449 13.5873 34.6509 13.6709C34.8528 13.7546 35.0333 13.8823 35.1794 14.0448C35.3255 14.2073 35.4333 14.4004 35.495 14.61L35.595 14.95C36.008 16.35 37.992 16.35 38.405 14.95L38.505 14.61C38.5667 14.4004 38.6745 14.2073 38.8206 14.0448C38.9667 13.8823 39.1472 13.7546 39.3491 13.6709C39.551 13.5873 39.769 13.5499 39.9872 13.5615C40.2053 13.5731 40.4182 13.6334 40.61 13.738L40.92 13.908C42.203 14.606 43.606 13.203 42.907 11.921L42.738 11.61C42.6334 11.4182 42.5731 11.2053 42.5615 10.9872C42.5499 10.769 42.5873 10.551 42.6709 10.3491C42.7546 10.1472 42.8823 9.96667 43.0448 9.82061C43.2073 9.67455 43.4004 9.56671 43.61 9.505L43.95 9.405C45.35 8.992 45.35 7.008 43.95 6.595L43.61 6.495C43.4004 6.43329 43.2073 6.32545 43.0448 6.17939C42.8823 6.03333 42.7546 5.85275 42.6709 5.6509C42.5873 5.44904 42.5499 5.23103 42.5615 5.01285C42.5731 4.79466 42.6334 4.58185 42.738 4.39L42.908 4.08C43.606 2.797 42.203 1.394 40.921 2.093L40.61 2.262C40.4182 2.36656 40.2053 2.42685 39.9872 2.43846C39.769 2.45006 39.551 2.41268 39.3491 2.32906C39.1472 2.24544 38.9667 2.11771 38.8206 1.95521C38.6745 1.79272 38.5667 1.59959 38.505 1.39L38.405 1.05ZM37 10.93C36.2229 10.93 35.4777 10.6213 34.9282 10.0718C34.3787 9.52234 34.07 8.77708 34.07 8C34.07 7.22292 34.3787 6.47766 34.9282 5.92818C35.4777 5.3787 36.2229 5.07 37 5.07C37.7768 5.07 38.5218 5.37859 39.0711 5.92788C39.6204 6.47718 39.929 7.22218 39.929 7.999C39.929 8.77582 39.6204 9.52082 39.0711 10.0701C38.5218 10.6194 37.7768 10.928 37 10.928V10.93Z" fill="#19413A"/>
<circle cx="37" cy="8" r="3" fill="#19413A"/>
<mask id="mask0_1148_855" style="mask-type:alpha" maskUnits="userSpaceOnUse" x="29" y="0" width="16" height="16">
<path d="M38.405 1.05C37.992 -0.35 36.008 -0.35 35.595 1.05L35.495 1.39C35.4333 1.59959 35.3255 1.79272 35.1794 1.95521C35.0333 2.11771 34.8528 2.24544 34.6509 2.32906C34.449 2.41268 34.231 2.45006 34.0128 2.43846C33.7947 2.42685 33.5818 2.36656 33.39 2.262L33.08 2.092C31.797 1.394 30.394 2.797 31.093 4.079L31.262 4.39C31.708 5.21 31.285 6.231 30.39 6.495L30.05 6.595C28.65 7.008 28.65 8.992 30.05 9.405L30.39 9.505C30.5996 9.56671 30.7927 9.67455 30.9552 9.82061C31.1177 9.96667 31.2454 10.1472 31.3291 10.3491C31.4127 10.551 31.4501 10.769 31.4385 10.9872C31.4269 11.2053 31.3666 11.4182 31.262 11.61L31.092 11.92C30.394 13.203 31.797 14.606 33.079 13.907L33.39 13.738C33.5818 13.6334 33.7947 13.5731 34.0128 13.5615C34.231 13.5499 34.449 13.5873 34.6509 13.6709C34.8528 13.7546 35.0333 13.8823 35.1794 14.0448C35.3255 14.2073 35.4333 14.4004 35.495 14.61L35.595 14.95C36.008 16.35 37.992 16.35 38.405 14.95L38.505 14.61C38.5667 14.4004 38.6745 14.2073 38.8206 14.0448C38.9667 13.8823 39.1472 13.7546 39.3491 13.6709C39.551 13.5873 39.769 13.5499 39.9872 13.5615C40.2053 13.5731 40.4182 13.6334 40.61 13.738L40.92 13.908C42.203 14.606 43.606 13.203 42.907 11.921L42.738 11.61C42.6334 11.4182 42.5731 11.2053 42.5615 10.9872C42.5499 10.769 42.5873 10.551 42.6709 10.3491C42.7546 10.1472 42.8823 9.96667 43.0448 9.82061C43.2073 9.67455 43.4004 9.56671 43.61 9.505L43.95 9.405C45.35 8.992 45.35 7.008 43.95 6.595L43.61 6.495C43.4004 6.43329 43.2073 6.32545 43.0448 6.17939C42.8823 6.03333 42.7546 5.85275 42.6709 5.6509C42.5873 5.44904 42.5499 5.23103 42.5615 5.01285C42.5731 4.79466 42.6334 4.58185 42.738 4.39L42.908 4.08C43.606 2.797 42.203 1.394 40.921 2.093L40.61 2.262C40.4182 2.36656 40.2053 2.42685 39.9872 2.43846C39.769 2.45006 39.551 2.41268 39.3491 2.32906C39.1472 2.24544 38.9667 2.11771 38.8206 1.95521C38.6745 1.79272 38.5667 1.59959 38.505 1.39L38.405 1.05ZM37 10.93C36.2229 10.93 35.4777 10.6213 34.9282 10.0718C34.3787 9.52234 34.07 8.77708 34.07 8C34.07 7.22292 34.3787 6.47766 34.9282 5.92818C35.4777 5.3787 36.2229 5.07 37 5.07C37.7768 5.07 38.5218 5.37859 39.0711 5.92788C39.6204 6.47718 39.929 7.22218 39.929 7.999C39.929 8.77582 39.6204 9.52082 39.0711 10.0701C38.5218 10.6194 37.7768 10.928 37 10.928V10.93Z" fill="black"/>
<circle cx="37" cy="8" r="3" fill="black"/>
</mask>
<g mask="url(#mask0_1148_855)">
<path d="M36.7489 5.04795C37.2737 4.95761 37.8125 4.9953 38.3195 5.15781C38.8266 5.32033 39.2869 5.60287 39.6613 5.98142C40.0358 6.35997 40.3133 6.82333 40.4703 7.33212C40.6273 7.84091 40.6592 8.38009 40.5631 8.90382C40.4989 9.25445 40.5672 9.56189 40.7477 9.74183L43.6093 12.6039C43.8644 12.8721 44.0045 13.2294 43.9999 13.5996C43.9952 13.9697 43.8461 14.3234 43.5844 14.5851C43.3227 14.8469 42.969 14.996 42.5988 15.0006C42.2287 15.0053 41.8714 14.8651 41.6032 14.61L38.7416 11.7484C38.5617 11.5685 38.2537 11.4996 37.9036 11.5633C37.3799 11.6592 36.8409 11.6273 36.3322 11.4703C35.8235 11.3133 35.3602 11.0358 34.9817 10.6614C34.6032 10.2871 34.3207 9.82686 34.1581 9.31993C33.9955 8.813 33.9576 8.27432 34.0477 7.74963C34.0719 7.59713 34.1414 7.45544 34.2472 7.34302C34.353 7.23059 34.4903 7.15264 34.641 7.11933C34.9187 7.05609 35.2235 7.13989 35.4431 7.35942L36.7515 8.66733C36.7703 8.6853 36.7954 8.69533 36.8214 8.69533C36.8474 8.69533 36.8725 8.6853 36.8913 8.66733L37.6666 7.89204C37.6846 7.8732 37.6946 7.84816 37.6946 7.82212C37.6946 7.79608 37.6846 7.77104 37.6666 7.7522L36.3592 6.44378C36.2549 6.34113 36.1782 6.2138 36.1362 6.07359C36.0942 5.93338 36.0883 5.78484 36.1191 5.64176C36.1844 5.35385 36.4075 5.10708 36.7489 5.04795Z" fill="#D4F550"/>
</g>
</g>
<defs>
<clipPath id="clip0_1148_855">
<rect width="16" height="16" fill="white" transform="translate(29)"/>
</clipPath>
</defs>
</svg>
