<svg width="92" height="16" viewBox="0 0 92 16" fill="none" xmlns="http://www.w3.org/2000/svg">
<g clip-path="url(#clip0_1148_831)">
<path d="M9.405 1.05C8.992 -0.35 7.008 -0.35 6.595 1.05L6.495 1.39C6.43329 1.59959 6.32545 1.79272 6.17939 1.95521C6.03333 2.11771 5.85275 2.24544 5.6509 2.32906C5.44904 2.41268 5.23103 2.45006 5.01285 2.43846C4.79466 2.42685 4.58185 2.36656 4.39 2.262L4.08 2.092C2.797 1.394 1.394 2.797 2.093 4.079L2.262 4.39C2.708 5.21 2.285 6.231 1.39 6.495L1.05 6.595C-0.35 7.008 -0.35 8.992 1.05 9.405L1.39 9.505C1.59959 9.56671 1.79272 9.67455 1.95521 9.82061C2.11771 9.96667 2.24544 10.1472 2.32906 10.3491C2.41268 10.551 2.45006 10.769 2.43846 10.9872C2.42685 11.2053 2.36656 11.4182 2.262 11.61L2.092 11.92C1.394 13.203 2.797 14.606 4.079 13.907L4.39 13.738C4.58185 13.6334 4.79466 13.5731 5.01285 13.5615C5.23103 13.5499 5.44904 13.5873 5.6509 13.6709C5.85275 13.7546 6.03333 13.8823 6.17939 14.0448C6.32545 14.2073 6.43329 14.4004 6.495 14.61L6.595 14.95C7.008 16.35 8.992 16.35 9.405 14.95L9.505 14.61C9.56671 14.4004 9.67455 14.2073 9.82061 14.0448C9.96667 13.8823 10.1472 13.7546 10.3491 13.6709C10.551 13.5873 10.769 13.5499 10.9872 13.5615C11.2053 13.5731 11.4182 13.6334 11.61 13.738L11.92 13.908C13.203 14.606 14.606 13.203 13.907 11.921L13.738 11.61C13.6334 11.4182 13.5731 11.2053 13.5615 10.9872C13.5499 10.769 13.5873 10.551 13.6709 10.3491C13.7546 10.1472 13.8823 9.96667 14.0448 9.82061C14.2073 9.67455 14.4004 9.56671 14.61 9.505L14.95 9.405C16.35 8.992 16.35 7.008 14.95 6.595L14.61 6.495C14.4004 6.43329 14.2073 6.32545 14.0448 6.17939C13.8823 6.03333 13.7546 5.85275 13.6709 5.6509C13.5873 5.44904 13.5499 5.23103 13.5615 5.01285C13.5731 4.79466 13.6334 4.58185 13.738 4.39L13.908 4.08C14.606 2.797 13.203 1.394 11.921 2.093L11.61 2.262C11.4182 2.36656 11.2053 2.42685 10.9872 2.43846C10.769 2.45006 10.551 2.41268 10.3491 2.32906C10.1472 2.24544 9.96667 2.11771 9.82061 1.95521C9.67455 1.79272 9.56671 1.59959 9.505 1.39L9.405 1.05ZM8 10.93C7.22292 10.93 6.47766 10.6213 5.92818 10.0718C5.3787 9.52234 5.07 8.77708 5.07 8C5.07 7.22292 5.3787 6.47766 5.92818 5.92818C6.47766 5.3787 7.22292 5.07 8 5.07C8.77682 5.07 9.52182 5.37859 10.0711 5.92788C10.6204 6.47718 10.929 7.22218 10.929 7.999C10.929 8.77582 10.6204 9.52082 10.0711 10.0701C9.52182 10.6194 8.77682 10.928 8 10.928V10.93Z" fill="#19413A"/>
<circle cx="8" cy="8" r="3" fill="#19413A"/>
<mask id="mask0_1148_831" style="mask-type:alpha" maskUnits="userSpaceOnUse" x="0" y="0" width="16" height="16">
<path d="M9.405 1.05C8.992 -0.35 7.008 -0.35 6.595 1.05L6.495 1.39C6.43329 1.59959 6.32545 1.79272 6.17939 1.95521C6.03333 2.11771 5.85275 2.24544 5.6509 2.32906C5.44904 2.41268 5.23103 2.45006 5.01285 2.43846C4.79466 2.42685 4.58185 2.36656 4.39 2.262L4.08 2.092C2.797 1.394 1.394 2.797 2.093 4.079L2.262 4.39C2.708 5.21 2.285 6.231 1.39 6.495L1.05 6.595C-0.35 7.008 -0.35 8.992 1.05 9.405L1.39 9.505C1.59959 9.56671 1.79272 9.67455 1.95521 9.82061C2.11771 9.96667 2.24544 10.1472 2.32906 10.3491C2.41268 10.551 2.45006 10.769 2.43846 10.9872C2.42685 11.2053 2.36656 11.4182 2.262 11.61L2.092 11.92C1.394 13.203 2.797 14.606 4.079 13.907L4.39 13.738C4.58185 13.6334 4.79466 13.5731 5.01285 13.5615C5.23103 13.5499 5.44904 13.5873 5.6509 13.6709C5.85275 13.7546 6.03333 13.8823 6.17939 14.0448C6.32545 14.2073 6.43329 14.4004 6.495 14.61L6.595 14.95C7.008 16.35 8.992 16.35 9.405 14.95L9.505 14.61C9.56671 14.4004 9.67455 14.2073 9.82061 14.0448C9.96667 13.8823 10.1472 13.7546 10.3491 13.6709C10.551 13.5873 10.769 13.5499 10.9872 13.5615C11.2053 13.5731 11.4182 13.6334 11.61 13.738L11.92 13.908C13.203 14.606 14.606 13.203 13.907 11.921L13.738 11.61C13.6334 11.4182 13.5731 11.2053 13.5615 10.9872C13.5499 10.769 13.5873 10.551 13.6709 10.3491C13.7546 10.1472 13.8823 9.96667 14.0448 9.82061C14.2073 9.67455 14.4004 9.56671 14.61 9.505L14.95 9.405C16.35 8.992 16.35 7.008 14.95 6.595L14.61 6.495C14.4004 6.43329 14.2073 6.32545 14.0448 6.17939C13.8823 6.03333 13.7546 5.85275 13.6709 5.6509C13.5873 5.44904 13.5499 5.23103 13.5615 5.01285C13.5731 4.79466 13.6334 4.58185 13.738 4.39L13.908 4.08C14.606 2.797 13.203 1.394 11.921 2.093L11.61 2.262C11.4182 2.36656 11.2053 2.42685 10.9872 2.43846C10.769 2.45006 10.551 2.41268 10.3491 2.32906C10.1472 2.24544 9.96667 2.11771 9.82061 1.95521C9.67455 1.79272 9.56671 1.59959 9.505 1.39L9.405 1.05ZM8 10.93C7.22292 10.93 6.47766 10.6213 5.92818 10.0718C5.3787 9.52234 5.07 8.77708 5.07 8C5.07 7.22292 5.3787 6.47766 5.92818 5.92818C6.47766 5.3787 7.22292 5.07 8 5.07C8.77682 5.07 9.52182 5.37859 10.0711 5.92788C10.6204 6.47718 10.929 7.22218 10.929 7.999C10.929 8.77582 10.6204 9.52082 10.0711 10.0701C9.52182 10.6194 8.77682 10.928 8 10.928V10.93Z" fill="black"/>
<circle cx="8" cy="8" r="3" fill="black"/>
</mask>
<g mask="url(#mask0_1148_831)">
<path d="M7.74891 5.04795C8.27365 4.95761 8.81245 4.9953 9.31951 5.15781C9.82656 5.32033 10.2869 5.60287 10.6613 5.98142C11.0358 6.35997 11.3133 6.82333 11.4703 7.33212C11.6273 7.84091 11.6592 8.38009 11.5631 8.90382C11.4989 9.25445 11.5672 9.56189 11.7477 9.74183L14.6093 12.6039C14.8644 12.8721 15.0045 13.2294 14.9999 13.5996C14.9952 13.9697 14.8461 14.3234 14.5844 14.5851C14.3227 14.8469 13.969 14.996 13.5988 15.0006C13.2287 15.0053 12.8714 14.8651 12.6032 14.61L9.74162 11.7484C9.56168 11.5685 9.25372 11.4996 8.90361 11.5633C8.37995 11.6592 7.84088 11.6273 7.33219 11.4703C6.82351 11.3133 6.36023 11.0358 5.98173 10.6614C5.60322 10.2871 5.32067 9.82686 5.15807 9.31993C4.99547 8.813 4.95762 8.27432 5.04775 7.74963C5.07189 7.59713 5.1414 7.45544 5.24722 7.34302C5.35305 7.23059 5.49028 7.15264 5.64103 7.11933C5.91866 7.05609 6.22353 7.13989 6.44305 7.35942L7.75148 8.66733C7.77032 8.6853 7.79536 8.69533 7.8214 8.69533C7.84744 8.69533 7.87248 8.6853 7.89132 8.66733L8.6666 7.89204C8.68458 7.8732 8.69461 7.84816 8.69461 7.82212C8.69461 7.79608 8.68458 7.77104 8.6666 7.7522L7.35921 6.44378C7.25488 6.34113 7.17817 6.2138 7.13619 6.07359C7.09422 5.93338 7.08835 5.78484 7.11912 5.64176C7.18441 5.35385 7.40753 5.10708 7.74891 5.04795Z" fill="#D4F550"/>
</g>
</g>
<path d="M21.1896 4.45455H22.5575V9.01847C22.5575 9.44034 22.4627 9.80682 22.2731 10.1179C22.0856 10.429 21.8246 10.6687 21.4901 10.837C21.1555 11.0053 20.7667 11.0895 20.3235 11.0895C19.9293 11.0895 19.5714 11.0202 19.2496 10.8817C18.93 10.7411 18.6765 10.5281 18.489 10.2425C18.3015 9.9549 18.2088 9.59375 18.2109 9.15909H19.5884C19.5927 9.33168 19.6278 9.47976 19.6939 9.60334C19.7621 9.72479 19.8548 9.81854 19.9719 9.88459C20.0913 9.94851 20.2319 9.98047 20.3938 9.98047C20.5643 9.98047 20.7081 9.94425 20.8253 9.8718C20.9446 9.79723 21.0352 9.68857 21.0969 9.54581C21.1587 9.40305 21.1896 9.22727 21.1896 9.01847V4.45455ZM23.7017 11V4.45455H25.0856V7.34055H25.1719L27.5273 4.45455H29.1861L26.7571 7.3853L29.2148 11H27.5593L25.7663 8.30895L25.0856 9.13991V11H23.7017ZM29.9068 11V4.45455H34.3173V5.59553H31.2907V7.15518H34.0904V8.29616H31.2907V9.85902H34.3301V11H29.9068ZM35.1682 5.59553V4.45455H40.5439V5.59553H38.54V11H37.1721V5.59553H35.1682ZM43.5123 11V4.45455H46.0946C46.5911 4.45455 47.014 4.54936 47.3635 4.73899C47.7129 4.92649 47.9792 5.1875 48.1625 5.52202C48.3478 5.8544 48.4405 6.23793 48.4405 6.67259C48.4405 7.10724 48.3468 7.49077 48.1593 7.82315C47.9718 8.15554 47.7001 8.41442 47.3443 8.59979C46.9906 8.78516 46.5623 8.87784 46.0595 8.87784H44.4135V7.76882H45.8358C46.1021 7.76882 46.3216 7.72301 46.4941 7.63139C46.6689 7.53764 46.7988 7.40874 46.8841 7.24467C46.9714 7.07848 47.0151 6.88778 47.0151 6.67259C47.0151 6.45526 46.9714 6.26562 46.8841 6.10369C46.7988 5.93963 46.6689 5.81285 46.4941 5.72337C46.3194 5.63175 46.0978 5.58594 45.8294 5.58594H44.8961V11H43.5123ZM49.3138 11V6.09091H50.6338V6.94744H50.6849C50.7744 6.64276 50.9246 6.41264 51.1356 6.2571C51.3465 6.09943 51.5894 6.0206 51.8643 6.0206C51.9324 6.0206 52.0059 6.02486 52.0848 6.03338C52.1636 6.0419 52.2329 6.05362 52.2925 6.06854V7.27663C52.2286 7.25746 52.1402 7.24041 52.0273 7.2255C51.9143 7.21058 51.811 7.20312 51.7172 7.20312C51.517 7.20312 51.338 7.2468 51.1803 7.33416C51.0248 7.41939 50.9012 7.53871 50.8096 7.69212C50.7201 7.84553 50.6753 8.02237 50.6753 8.22266V11H49.3138ZM52.9964 11V6.09091H54.358V11H52.9964ZM53.6804 5.4581C53.478 5.4581 53.3043 5.39098 53.1594 5.25675C53.0167 5.12038 52.9453 4.95739 52.9453 4.76776C52.9453 4.58026 53.0167 4.41939 53.1594 4.28516C53.3043 4.14879 53.478 4.08061 53.6804 4.08061C53.8828 4.08061 54.0554 4.14879 54.1982 4.28516C54.343 4.41939 54.4155 4.58026 54.4155 4.76776C54.4155 4.95739 54.343 5.12038 54.1982 5.25675C54.0554 5.39098 53.8828 5.4581 53.6804 5.4581ZM55.4486 11V6.09091H56.7462V6.95703H56.8037C56.906 6.66939 57.0764 6.44247 57.3151 6.27628C57.5537 6.11009 57.8392 6.02699 58.1716 6.02699C58.5083 6.02699 58.7948 6.11115 59.0313 6.27947C59.2678 6.44567 59.4255 6.67152 59.5044 6.95703H59.5555C59.6556 6.67578 59.8367 6.45099 60.0988 6.28267C60.363 6.11222 60.6752 6.02699 61.0352 6.02699C61.4933 6.02699 61.8651 6.17294 62.1507 6.46484C62.4383 6.75462 62.5821 7.16584 62.5821 7.69851V11H61.2238V7.96697C61.2238 7.69425 61.1514 7.4897 61.0065 7.35334C60.8616 7.21697 60.6805 7.14879 60.4632 7.14879C60.216 7.14879 60.0232 7.22763 59.8847 7.3853C59.7462 7.54084 59.6769 7.74645 59.6769 8.00213V11H58.357V7.93821C58.357 7.69744 58.2877 7.50568 58.1492 7.36293C58.0129 7.22017 57.8328 7.14879 57.6091 7.14879C57.4578 7.14879 57.3215 7.18714 57.2 7.26385C57.0807 7.33842 56.9859 7.44389 56.9156 7.58026C56.8453 7.71449 56.8101 7.87216 56.8101 8.05327V11H55.4486ZM65.8948 11.0959C65.3898 11.0959 64.9552 10.9936 64.5908 10.7891C64.2286 10.5824 63.9495 10.2905 63.7535 9.91335C63.5574 9.53409 63.4594 9.08558 63.4594 8.56783C63.4594 8.06286 63.5574 7.61967 63.7535 7.23828C63.9495 6.85689 64.2254 6.55966 64.5812 6.34659C64.9392 6.13352 65.3589 6.02699 65.8405 6.02699C66.1643 6.02699 66.4658 6.07919 66.7449 6.18359C67.0262 6.28587 67.2712 6.44034 67.48 6.64702C67.691 6.85369 67.855 7.11364 67.9722 7.42685C68.0894 7.73793 68.148 8.10227 68.148 8.51989V8.89382H64.0028V8.05007H66.8664C66.8664 7.85405 66.8238 7.6804 66.7385 7.52912C66.6533 7.37784 66.5351 7.25959 66.3838 7.17436C66.2346 7.087 66.061 7.04332 65.8628 7.04332C65.6562 7.04332 65.4729 7.09126 65.3131 7.18714C65.1555 7.28089 65.0319 7.40767 64.9424 7.56747C64.8529 7.72514 64.8071 7.90092 64.805 8.09482V8.89702C64.805 9.13991 64.8497 9.34979 64.9392 9.52663C65.0308 9.70348 65.1597 9.83984 65.3259 9.93572C65.4921 10.0316 65.6892 10.0795 65.9172 10.0795C66.0684 10.0795 66.2069 10.0582 66.3327 10.0156C66.4584 9.97301 66.566 9.90909 66.6555 9.82386C66.7449 9.73864 66.8131 9.63423 66.86 9.51065L68.1192 9.59375C68.0553 9.89631 67.9243 10.1605 67.7261 10.3864C67.5301 10.6101 67.2765 10.7848 66.9655 10.9105C66.6565 11.0341 66.2996 11.0959 65.8948 11.0959ZM76.9203 6.74609H75.5204C75.4949 6.56499 75.4426 6.40412 75.3638 6.26349C75.285 6.12074 75.1838 5.99929 75.0602 5.89915C74.9366 5.79901 74.7939 5.7223 74.6319 5.66903C74.4721 5.61577 74.2985 5.58913 74.111 5.58913C73.7722 5.58913 73.4771 5.6733 73.2257 5.84162C72.9743 6.00781 72.7793 6.25071 72.6408 6.57031C72.5023 6.88778 72.4331 7.27344 72.4331 7.72727C72.4331 8.19389 72.5023 8.58594 72.6408 8.90341C72.7814 9.22088 72.9775 9.46058 73.2289 9.62251C73.4803 9.78445 73.7711 9.86541 74.1014 9.86541C74.2868 9.86541 74.4583 9.84091 74.6159 9.7919C74.7757 9.7429 74.9174 9.67152 75.041 9.57777C75.1646 9.48189 75.2669 9.36577 75.3478 9.2294C75.4309 9.09304 75.4885 8.9375 75.5204 8.76278L76.9203 8.76918C76.8841 9.0696 76.7935 9.35938 76.6486 9.63849C76.5059 9.91548 76.313 10.1637 76.0701 10.3832C75.8294 10.6005 75.5417 10.7731 75.2072 10.9009C74.8748 11.0266 74.4988 11.0895 74.079 11.0895C73.4952 11.0895 72.9732 10.9574 72.513 10.6932C72.0549 10.429 71.6926 10.0465 71.4263 9.54581C71.1621 9.0451 71.03 8.43892 71.03 7.72727C71.03 7.01349 71.1642 6.40625 71.4327 5.90554C71.7012 5.40483 72.0655 5.02344 72.5257 4.76136C72.986 4.49716 73.5037 4.36506 74.079 4.36506C74.4583 4.36506 74.8098 4.41832 75.1337 4.52486C75.4597 4.63139 75.7484 4.78693 75.9998 4.99148C76.2512 5.19389 76.4558 5.44212 76.6135 5.73615C76.7733 6.03018 76.8755 6.36683 76.9203 6.74609ZM79.2869 11.0927C78.9737 11.0927 78.6946 11.0384 78.4496 10.9297C78.2045 10.8189 78.0107 10.6559 77.8679 10.4407C77.7273 10.2234 77.657 9.95277 77.657 9.62891C77.657 9.35618 77.707 9.12713 77.8072 8.94176C77.9073 8.75639 78.0437 8.60724 78.2163 8.49432C78.3888 8.38139 78.5849 8.29616 78.8043 8.23864C79.0259 8.18111 79.2582 8.14062 79.5011 8.11719C79.7866 8.08736 80.0167 8.05966 80.1914 8.03409C80.3661 8.00639 80.4929 7.96591 80.5717 7.91264C80.6506 7.85937 80.69 7.78054 80.69 7.67614V7.65696C80.69 7.45455 80.6261 7.29794 80.4982 7.18714C80.3725 7.07635 80.1935 7.02095 79.9613 7.02095C79.7163 7.02095 79.5213 7.07528 79.3764 7.18395C79.2315 7.29048 79.1357 7.42472 79.0888 7.58665L77.8295 7.48438C77.8935 7.18608 78.0192 6.92827 78.2067 6.71094C78.3942 6.49148 78.636 6.32315 78.9322 6.20597C79.2305 6.08665 79.5756 6.02699 79.9677 6.02699C80.2404 6.02699 80.5014 6.05895 80.7507 6.12287C81.0021 6.18679 81.2248 6.28587 81.4187 6.4201C81.6147 6.55433 81.7692 6.72692 81.8821 6.93786C81.995 7.14666 82.0515 7.39702 82.0515 7.68892V11H80.7603V10.3192H80.7219C80.6431 10.4727 80.5376 10.608 80.4055 10.7251C80.2734 10.8402 80.1147 10.9308 79.9293 10.9968C79.744 11.0607 79.5298 11.0927 79.2869 11.0927ZM79.6768 10.1531C79.8771 10.1531 80.054 10.1136 80.2074 10.0348C80.3608 9.95384 80.4812 9.84517 80.5685 9.70881C80.6559 9.57244 80.6996 9.41797 80.6996 9.24538V8.72443C80.657 8.75213 80.5984 8.7777 80.5238 8.80114C80.4513 8.82244 80.3693 8.84268 80.2777 8.86186C80.1861 8.87891 80.0945 8.89489 80.0028 8.9098C79.9112 8.92259 79.8281 8.9343 79.7536 8.94496C79.5938 8.96839 79.4542 9.00568 79.3349 9.05682C79.2156 9.10795 79.1229 9.1772 79.0568 9.26456C78.9908 9.34979 78.9577 9.45632 78.9577 9.58416C78.9577 9.76953 79.0249 9.91122 79.1591 10.0092C79.2955 10.1051 79.468 10.1531 79.6768 10.1531ZM83.1078 11V6.09091H84.4277V6.94744H84.4789C84.5684 6.64276 84.7186 6.41264 84.9295 6.2571C85.1404 6.09943 85.3833 6.0206 85.6582 6.0206C85.7264 6.0206 85.7999 6.02486 85.8787 6.03338C85.9576 6.0419 86.0268 6.05362 86.0865 6.06854V7.27663C86.0225 7.25746 85.9341 7.24041 85.8212 7.2255C85.7083 7.21058 85.6049 7.20312 85.5112 7.20312C85.3109 7.20312 85.1319 7.2468 84.9743 7.33416C84.8187 7.41939 84.6951 7.53871 84.6035 7.69212C84.514 7.84553 84.4693 8.02237 84.4693 8.22266V11H83.1078ZM88.7991 11.0959C88.2941 11.0959 87.8595 10.9936 87.4951 10.7891C87.1329 10.5824 86.8538 10.2905 86.6578 9.91335C86.4617 9.53409 86.3637 9.08558 86.3637 8.56783C86.3637 8.06286 86.4617 7.61967 86.6578 7.23828C86.8538 6.85689 87.1297 6.55966 87.4855 6.34659C87.8435 6.13352 88.2632 6.02699 88.7448 6.02699C89.0686 6.02699 89.3701 6.07919 89.6492 6.18359C89.9305 6.28587 90.1755 6.44034 90.3843 6.64702C90.5953 6.85369 90.7593 7.11364 90.8765 7.42685C90.9937 7.73793 91.0523 8.10227 91.0523 8.51989V8.89382H86.907V8.05007H89.7707C89.7707 7.85405 89.7281 7.6804 89.6428 7.52912C89.5576 7.37784 89.4394 7.25959 89.2881 7.17436C89.1389 7.087 88.9653 7.04332 88.7671 7.04332C88.5605 7.04332 88.3772 7.09126 88.2174 7.18714C88.0597 7.28089 87.9362 7.40767 87.8467 7.56747C87.7572 7.72514 87.7114 7.90092 87.7093 8.09482V8.89702C87.7093 9.13991 87.754 9.34979 87.8435 9.52663C87.9351 9.70348 88.064 9.83984 88.2302 9.93572C88.3964 10.0316 88.5935 10.0795 88.8215 10.0795C88.9727 10.0795 89.1112 10.0582 89.2369 10.0156C89.3627 9.97301 89.4703 9.90909 89.5597 9.82386C89.6492 9.73864 89.7174 9.63423 89.7643 9.51065L91.0235 9.59375C90.9596 9.89631 90.8286 10.1605 90.6304 10.3864C90.4344 10.6101 90.1808 10.7848 89.8698 10.9105C89.5608 11.0341 89.2039 11.0959 88.7991 11.0959Z" fill="#19413A"/>
<defs>
<clipPath id="clip0_1148_831">
<rect width="16" height="16" fill="white"/>
</clipPath>
</defs>
</svg>
